<svg width="676" height="529" viewBox="0 0 676 529" fill="none" xmlns="http://www.w3.org/2000/svg">
<path opacity="0.1" d="M320.527 377.857C320.527 463.852 260.591 529 169.384 529C78.1773 529 0 456.035 0 325.739C0 164.172 122.478 26.0591 281.438 0V96.4187C190.232 114.66 122.478 179.808 122.478 255.379C138.113 244.956 158.961 237.138 192.837 237.138C260.591 237.138 320.527 286.65 320.527 377.857ZM742.685 377.857C742.685 463.852 680.143 529 588.936 529C500.335 529 419.552 456.035 419.552 325.739C419.552 164.172 542.03 26.0591 703.596 0V96.4187C612.389 114.66 544.635 179.808 544.635 252.773C560.271 242.35 583.724 237.138 614.995 237.138C682.749 237.138 742.685 286.65 742.685 377.857Z" fill="white"/>
</svg>
