<svg width="183" height="77" viewBox="0 0 183 77" fill="none" xmlns="http://www.w3.org/2000/svg">
<path d="M56.288 30.1604L39.9313 29.5889L39.7621 34.4353L51.3481 34.8402C50.5423 41.6356 44.7625 44.3148 39.4239 44.1282C32.5707 43.8888 26.8139 38.3045 27.0768 30.7698C27.3332 23.4244 33.2095 17.9813 40.3277 18.23C45.8178 18.4219 48.9511 22.0569 48.9511 22.0569L52.4816 18.6547C52.4816 18.6547 48.2966 13.6561 40.3454 13.3783C30.236 13.0251 22.0998 21.3082 21.7787 30.5089C21.4629 39.5581 28.5382 48.6381 39.367 49.0165C48.9084 49.3499 56.1037 43.043 56.4407 33.388C56.5121 31.3434 56.288 30.1604 56.288 30.1604Z" fill="white"/>
<path d="M69.7759 27.1058C63.0742 26.8716 58.0819 31.9665 57.8692 38.0625C57.6525 44.272 62.1233 49.7733 69.0522 50.0155C75.3374 50.2351 80.6167 45.6051 80.8466 39.017C81.1501 31.4079 75.3039 27.299 69.7759 27.1058ZM69.6944 31.6141C72.9884 31.7292 76.0386 34.4894 75.8879 38.8058C75.7412 43.0086 72.54 45.6641 69.2081 45.5476C65.5354 45.4193 62.7596 42.4033 62.901 38.352C63.0411 34.3385 65.9838 31.4845 69.6944 31.6141Z" fill="white"/>
<path d="M94.8428 27.9817C88.1411 27.7475 83.1488 32.8424 82.9361 38.9383C82.7194 45.1478 87.1902 50.6492 94.1191 50.8913C100.404 51.1109 105.684 46.4809 105.914 39.8928C106.179 32.2824 100.333 28.1735 94.8428 27.9817ZM94.7613 32.49C98.0553 32.6051 101.105 35.3653 100.955 39.6816C100.808 43.8844 97.6069 46.5399 94.275 46.4235C90.6023 46.2952 87.8265 43.2792 87.9679 39.2279C88.0701 35.2131 91.0507 32.3603 94.7613 32.49Z" fill="white"/>
<path d="M119.375 28.8389C113.204 28.6232 108.207 33.8317 107.996 39.8898C107.755 46.7808 113.199 51.558 118.5 51.7432C121.756 51.857 123.543 50.6305 124.883 49.161L124.804 51.4328C124.666 55.3705 122.198 57.6725 118.563 57.5455C115.08 57.4238 113.391 54.7491 112.837 53.2513L108.38 54.9531C109.817 58.3014 112.84 61.8567 118.444 62.0525C124.577 62.2668 129.369 58.5675 129.651 50.5028L130.37 29.9054L125.561 29.7374L125.494 31.6684C124.071 30.0644 122.063 28.9328 119.375 28.8389ZM119.672 33.3604C122.701 33.4663 125.716 36.1494 125.563 40.5415C125.407 45.0093 122.216 47.3619 119.15 47.2547C115.855 47.1397 112.919 44.3834 113.067 40.1428C113.182 35.7494 116.454 33.248 119.672 33.3604Z" fill="white"/>
<path d="M151.711 29.9688C145.918 29.7664 140.872 34.215 140.635 41.0303C140.382 48.2621 145.685 52.7311 151.478 52.9335C156.325 53.1028 159.408 50.557 161.233 48.2325L157.35 45.4432C156.272 46.9977 154.476 48.4892 151.637 48.39C148.418 48.2775 147.004 46.4464 146.155 44.7108L161.749 38.887L161.019 37.0039C159.67 33.2796 156.292 30.1289 151.711 29.9688ZM151.785 34.3688C153.867 34.4416 155.344 35.5925 155.94 36.9781L145.529 40.898C145.191 37.5502 148.453 34.2524 151.785 34.3688Z" fill="white"/>
<path d="M139.165 18.0058L134.129 17.8298L132.95 51.6035L137.986 51.7794L139.165 18.0058Z" fill="white"/>
</svg>
