<svg width="183" height="78" viewBox="0 0 183 78" fill="none" xmlns="http://www.w3.org/2000/svg">
<path d="M72.4011 31.805L74.5617 31.8805L77.4256 41.0847L80.9242 32.1028L83.0848 32.1783L78.1783 44.4068L76.4431 44.3462L72.4011 31.805ZM71.2358 31.7643L73.3878 31.8395L73.4698 40.7165L73.3469 44.238L70.8036 44.1491L71.2358 31.7643ZM82.0981 32.1438L84.2586 32.2193L83.8264 44.6042L81.2745 44.515L81.3974 40.9935L82.0981 32.1438ZM90.9503 42.7751L91.0934 38.6752C91.1037 38.3803 91.0643 38.1263 90.9752 37.9131C90.8863 37.6942 90.7419 37.5217 90.5419 37.3955C90.3476 37.2694 90.0917 37.2009 89.7741 37.1898C89.5019 37.1803 89.2649 37.2202 89.063 37.3097C88.8614 37.3935 88.7036 37.5214 88.5898 37.6935C88.4761 37.8598 88.4152 38.0592 88.4071 38.2917L85.9573 38.2061C85.971 37.8149 86.0747 37.4466 86.2684 37.1014C86.4621 36.7561 86.7366 36.4563 87.0918 36.2018C87.4472 35.9417 87.8658 35.7434 88.3475 35.607C88.8348 35.4707 89.3762 35.413 89.9716 35.4338C90.6862 35.4587 91.3171 35.6 91.8645 35.8576C92.412 36.1152 92.8361 36.4877 93.1371 36.9751C93.4437 37.4628 93.5845 38.0639 93.5596 38.7784L93.4221 42.7167C93.4045 43.2214 93.4212 43.6364 93.4723 43.9618C93.5236 44.2816 93.6047 44.5626 93.7154 44.8049L93.7104 44.9495L91.2351 44.863C91.1248 44.6094 91.0449 44.2943 90.9956 43.9179C90.9521 43.536 90.9371 43.155 90.9503 42.7751ZM91.3967 39.2564L91.3654 40.6434L89.9959 40.5956C89.6727 40.5843 89.3907 40.6114 89.1499 40.6767C88.9092 40.7421 88.7099 40.8402 88.552 40.971C88.3944 41.096 88.2756 41.2452 88.1958 41.4184C88.1216 41.5918 88.0808 41.7834 88.0735 41.9932C88.0662 42.2031 88.1077 42.3947 88.1982 42.5682C88.2889 42.736 88.4233 42.8713 88.6014 42.9741C88.7796 43.0711 88.9907 43.1239 89.2346 43.1324C89.6032 43.1453 89.9261 43.0828 90.2035 42.9449C90.4808 42.8069 90.6969 42.6328 90.8519 42.4225C91.0125 42.2123 91.0991 42.011 91.1115 41.8184L91.7217 42.8787C91.6228 43.108 91.4897 43.3447 91.3222 43.5886C91.1604 43.8328 90.9565 44.0613 90.7106 44.2741C90.4649 44.4813 90.1723 44.6499 89.8328 44.78C89.4935 44.9044 89.0942 44.9586 88.6349 44.9425C88.0508 44.9221 87.5246 44.7873 87.0564 44.5382C86.594 44.2836 86.2311 43.9444 85.9677 43.5208C85.7102 43.0916 85.5907 42.6105 85.6093 42.0775C85.6261 41.5955 85.7318 41.1705 85.9263 40.8026C86.1209 40.4346 86.3984 40.1292 86.7589 39.8863C87.1252 39.638 87.5772 39.4579 88.1148 39.3461C88.6526 39.2286 89.2731 39.1822 89.9762 39.2067L91.3967 39.2564ZM97.8843 37.8479L97.6317 45.0866L95.1819 45.001L95.5032 35.7974L97.7998 35.8776L97.8843 37.8479ZM97.4463 40.1491L96.7828 40.1259C96.8066 39.4454 96.9159 38.836 97.1107 38.2978C97.3056 37.7539 97.5686 37.2946 97.8997 36.9201C98.2309 36.5399 98.6184 36.2554 99.0621 36.0665C99.5118 35.8722 100.009 35.7845 100.553 35.8035C100.984 35.8186 101.376 35.8947 101.729 36.032C102.082 36.1692 102.381 36.3784 102.627 36.6595C102.878 36.9408 103.064 37.3078 103.185 37.7606C103.311 38.2135 103.363 38.7632 103.34 39.4097L103.135 45.2789L100.668 45.1927L100.873 39.315C100.888 38.9067 100.842 38.5871 100.737 38.3563C100.631 38.1255 100.469 37.9609 100.251 37.8625C100.039 37.7585 99.7744 37.701 99.4569 37.6899C99.128 37.6784 98.8393 37.7336 98.5909 37.8555C98.3482 37.9776 98.1434 38.1522 97.9765 38.3791C97.8155 38.6006 97.6899 38.8631 97.5998 39.1665C97.5098 39.47 97.4586 39.7975 97.4463 40.1491ZM111.146 36.344L113.366 36.4215L113.055 45.3189C113.026 46.1582 112.814 46.8633 112.419 47.4343C112.03 48.0112 111.499 48.4383 110.825 48.7157C110.151 48.9987 109.374 49.1249 108.495 49.0941C108.109 49.0807 107.703 49.0154 107.276 48.8982C106.854 48.7813 106.451 48.6083 106.067 48.3791C105.689 48.1501 105.375 47.8666 105.126 47.5286L106.257 46.1203C106.529 46.4592 106.849 46.7258 107.217 46.9204C107.585 47.1206 107.995 47.2286 108.449 47.2445C108.891 47.2599 109.268 47.1908 109.58 47.037C109.892 46.8889 110.136 46.6618 110.311 46.3557C110.486 46.0552 110.581 45.6866 110.597 45.25L110.833 38.4622L111.146 36.344ZM104.789 40.84L104.795 40.6613C104.82 39.9582 104.927 39.3232 105.117 38.7564C105.313 38.1841 105.577 37.6965 105.909 37.2937C106.247 36.891 106.649 36.5843 107.116 36.3735C107.584 36.1627 108.107 36.0674 108.685 36.0877C109.297 36.1091 109.807 36.2404 110.213 36.4817C110.619 36.723 110.948 37.0581 111.2 37.487C111.452 37.9103 111.642 38.4081 111.769 38.9803C111.903 39.547 112 40.1665 112.062 40.8386L112.048 41.2299C111.941 41.8677 111.793 42.4587 111.603 43.0028C111.414 43.5469 111.173 44.0211 110.881 44.4253C110.589 44.8239 110.232 45.1294 109.81 45.3417C109.394 45.5543 108.902 45.6507 108.335 45.6309C107.768 45.6111 107.259 45.4769 106.807 45.2283C106.362 44.98 105.985 44.6403 105.676 44.2094C105.368 43.7785 105.135 43.2764 104.979 42.7032C104.829 42.1302 104.766 41.5091 104.789 40.84ZM107.245 40.7469L107.239 40.9256C107.225 41.3055 107.25 41.6612 107.312 41.9927C107.374 42.3242 107.478 42.6202 107.622 42.8807C107.772 43.1357 107.961 43.3382 108.188 43.4881C108.422 43.6325 108.7 43.7104 109.023 43.7217C109.471 43.7373 109.84 43.6566 110.13 43.4793C110.421 43.2964 110.642 43.0402 110.796 42.7106C110.949 42.3809 111.045 41.9982 111.083 41.5623L111.122 40.4481C111.123 40.0904 111.086 39.7683 111.011 39.4818C110.936 39.1896 110.825 38.9388 110.679 38.7293C110.533 38.5198 110.34 38.3541 110.101 38.2322C109.861 38.1102 109.573 38.0434 109.239 38.0317C108.916 38.0204 108.632 38.0843 108.389 38.2235C108.152 38.3571 107.949 38.5459 107.782 38.7899C107.62 39.034 107.493 39.3248 107.402 39.6623C107.311 39.9941 107.259 40.3556 107.245 40.7469ZM118.813 44.0808C119.114 44.0913 119.382 44.0439 119.619 43.9386C119.855 43.8276 120.042 43.6695 120.18 43.4643C120.324 43.2535 120.404 43.0037 120.419 42.7147L122.724 42.7952C122.696 43.4415 122.503 44.011 122.145 44.5038C121.788 44.991 121.317 45.3691 120.735 45.6383C120.152 45.9018 119.506 46.0212 118.797 45.9964C118.083 45.9715 117.463 45.8306 116.938 45.5738C116.419 45.3172 115.991 44.9729 115.654 44.541C115.318 44.1034 115.071 43.6009 114.915 43.0333C114.759 42.4601 114.692 41.8503 114.715 41.2038L114.724 40.9571C114.746 40.305 114.855 39.7013 115.051 39.1461C115.246 38.5851 115.527 38.101 115.893 37.6936C116.26 37.2806 116.711 36.9642 117.247 36.7445C117.782 36.5248 118.405 36.4273 119.113 36.452C119.868 36.4784 120.523 36.6461 121.08 36.9551C121.643 37.2643 122.076 37.6939 122.381 38.2439C122.691 38.7885 122.836 39.4266 122.816 40.1583L120.511 40.0778C120.516 39.7714 120.461 39.4912 120.345 39.2374C120.234 38.9837 120.066 38.7791 119.838 38.6235C119.617 38.4625 119.339 38.3761 119.004 38.3644C118.647 38.3519 118.352 38.4183 118.12 38.5635C117.888 38.703 117.705 38.901 117.571 39.1575C117.438 39.4083 117.339 39.6973 117.277 40.0244C117.22 40.346 117.186 40.6855 117.173 41.0427L117.165 41.2894C117.152 41.6467 117.163 41.9905 117.197 42.321C117.231 42.6515 117.306 42.9465 117.421 43.2061C117.543 43.4658 117.714 43.6734 117.936 43.8287C118.158 43.9841 118.45 44.0681 118.813 44.0808ZM123.801 41.4872L123.807 41.3086C123.83 40.6338 123.948 40.0162 124.161 39.4559C124.374 38.8899 124.672 38.4035 125.055 37.9967C125.438 37.59 125.903 37.2798 126.45 37.0661C126.997 36.8467 127.619 36.7493 128.317 36.7736C129.014 36.798 129.631 36.9388 130.167 37.196C130.704 37.4475 131.149 37.7895 131.503 38.222C131.862 38.6547 132.128 39.1608 132.301 39.7403C132.474 40.3141 132.549 40.9384 132.525 41.6132L132.519 41.7919C132.496 42.461 132.378 43.0786 132.165 43.6446C131.952 44.2049 131.652 44.6912 131.262 45.1034C130.879 45.5102 130.414 45.8204 129.867 46.0341C129.321 46.2477 128.698 46.3424 128.001 46.318C127.303 46.2937 126.687 46.1557 126.15 45.9042C125.62 45.6529 125.175 45.3108 124.815 44.8781C124.461 44.44 124.198 43.934 124.025 43.3602C123.852 42.7807 123.777 42.1564 123.801 41.4872ZM126.257 41.3942L126.25 41.5728C126.237 41.9584 126.258 42.3197 126.315 42.6567C126.371 42.9936 126.468 43.2922 126.607 43.5526C126.751 43.8074 126.943 44.01 127.182 44.1603C127.421 44.3106 127.716 44.3919 128.068 44.4042C128.408 44.416 128.702 44.3554 128.951 44.2221C129.2 44.0889 129.402 43.9001 129.559 43.6557C129.715 43.4057 129.833 43.1146 129.913 42.7824C129.998 42.4504 130.048 42.0916 130.061 41.706L130.067 41.5273C130.08 41.1531 130.056 40.8002 129.993 40.4687C129.937 40.1318 129.837 39.833 129.693 39.5725C129.554 39.3065 129.366 39.0955 129.127 38.9396C128.888 38.7836 128.596 38.6996 128.25 38.6875C127.904 38.6754 127.607 38.7388 127.358 38.8777C127.114 39.0169 126.912 39.2142 126.75 39.4697C126.593 39.7197 126.475 40.0108 126.395 40.343C126.316 40.6695 126.27 41.0199 126.257 41.3942ZM139.373 44.5352L139.759 33.4773L142.226 33.5635L141.77 46.6288L139.55 46.5512L139.373 44.5352ZM133.641 41.8481L133.648 41.6695C133.672 40.9663 133.774 40.3311 133.953 39.7639C134.132 39.1911 134.381 38.703 134.702 38.2997C135.023 37.8965 135.411 37.5893 135.867 37.3781C136.323 37.1669 136.837 37.0713 137.41 37.0913C137.949 37.1102 138.415 37.24 138.81 37.4809C139.21 37.722 139.545 38.0573 139.814 38.4869C140.089 38.9109 140.304 39.4096 140.46 39.9828C140.616 40.5503 140.722 41.1701 140.778 41.842L140.765 42.2333C140.663 42.8713 140.515 43.4623 140.32 44.0062C140.125 44.5501 139.875 45.024 139.572 45.4278C139.274 45.8262 138.917 46.1317 138.501 46.3442C138.085 46.5568 137.604 46.6536 137.06 46.6346C136.487 46.6145 135.981 46.4805 135.541 46.2323C135.107 45.9844 134.744 45.6452 134.452 45.2149C134.166 44.7847 133.954 44.2834 133.815 43.7108C133.676 43.1381 133.618 42.5173 133.641 41.8481ZM136.097 41.7551L136.091 41.9337C136.078 42.3136 136.094 42.6691 136.139 42.9999C136.19 43.331 136.279 43.6265 136.406 43.8865C136.539 44.1409 136.714 44.3429 136.93 44.4924C137.152 44.6364 137.425 44.7141 137.748 44.7254C138.168 44.74 138.517 44.6586 138.796 44.4809C139.075 44.2976 139.291 44.0412 139.444 43.7116C139.603 43.3822 139.702 42.9995 139.74 42.5637L139.779 41.4494C139.774 41.0915 139.734 40.7693 139.659 40.4828C139.59 40.1909 139.479 39.94 139.328 39.7303C139.182 39.5208 138.994 39.3553 138.766 39.2338C138.543 39.1124 138.276 39.0463 137.964 39.0354C137.646 39.0243 137.371 39.0885 137.139 39.228C136.908 39.3619 136.717 39.5511 136.566 39.7956C136.421 40.0404 136.309 40.3317 136.229 40.6696C136.155 41.002 136.111 41.3638 136.097 41.7551ZM146.591 37.5825L146.269 46.786L143.811 46.7001L144.132 37.4966L146.591 37.5825ZM144.063 35.0925C144.075 34.7352 144.21 34.4447 144.468 34.2209C144.726 33.9972 145.064 33.8926 145.484 33.9073C145.898 33.9217 146.226 34.0496 146.467 34.2908C146.714 34.5322 146.831 34.8315 146.819 35.1888C146.806 35.5461 146.669 35.8365 146.405 36.0601C146.148 36.2838 145.812 36.3885 145.398 36.374C144.978 36.3594 144.648 36.2314 144.406 35.9902C144.165 35.749 144.05 35.4498 144.063 35.0925ZM150.945 39.7019L150.692 46.9406L148.243 46.855L148.564 37.6514L150.861 37.7317L150.945 39.7019ZM150.507 42.0031L149.844 41.9799C149.867 41.2994 149.977 40.69 150.171 40.1518C150.366 39.6079 150.629 39.1487 150.96 38.7742C151.292 38.394 151.679 38.1094 152.123 37.9205C152.573 37.7262 153.07 37.6385 153.614 37.6575C154.045 37.6726 154.437 37.7487 154.79 37.886C155.143 38.0232 155.442 38.2324 155.688 38.5135C155.939 38.7948 156.125 39.1618 156.245 39.6146C156.372 40.0675 156.423 40.6172 156.401 41.2637L156.196 47.1329L153.729 47.0467L153.934 41.169C153.949 40.7607 153.903 40.4412 153.797 40.2104C153.692 39.9796 153.53 39.8149 153.312 39.7165C153.1 39.6126 152.835 39.555 152.518 39.5439C152.189 39.5325 151.9 39.5877 151.652 39.7096C151.409 39.8317 151.204 40.0062 151.037 40.2332C150.876 40.4546 150.751 40.7171 150.661 41.0205C150.571 41.324 150.519 41.6515 150.507 42.0031ZM164.207 38.198L166.427 38.2756L166.116 47.1729C166.087 48.0122 165.875 48.7173 165.48 49.2883C165.091 49.8652 164.559 50.2923 163.886 50.5697C163.211 50.8527 162.435 50.9789 161.556 50.9482C161.17 50.9347 160.764 50.8694 160.336 50.7523C159.915 50.6353 159.512 50.4623 159.128 50.2331C158.75 50.0042 158.436 49.7207 158.187 49.3827L159.318 47.9744C159.59 48.3132 159.91 48.5798 160.278 48.7744C160.645 48.9746 161.056 49.0826 161.51 49.0985C161.952 49.1139 162.329 49.0448 162.641 48.891C162.953 48.743 163.196 48.5158 163.372 48.2097C163.547 47.9092 163.642 47.5407 163.657 47.104L163.894 40.3162L164.207 38.198ZM157.85 42.694L157.856 42.5154C157.88 41.8122 157.988 41.1772 158.178 40.6104C158.374 40.0381 158.638 39.5506 158.97 39.1477C159.308 38.745 159.71 38.4383 160.177 38.2275C160.645 38.0167 161.167 37.9215 161.746 37.9417C162.358 37.9631 162.867 38.0944 163.273 38.3357C163.68 38.577 164.008 38.9121 164.26 39.3411C164.512 39.7643 164.702 40.2621 164.83 40.8343C164.963 41.4011 165.061 42.0205 165.123 42.6926L165.109 43.0839C165.002 43.7217 164.853 44.3127 164.664 44.8568C164.475 45.4009 164.234 45.8751 163.942 46.2793C163.649 46.6779 163.292 46.9834 162.871 47.1958C162.454 47.4083 161.963 47.5047 161.396 47.4849C160.829 47.4651 160.319 47.3309 159.868 47.0823C159.423 46.834 159.046 46.4944 158.737 46.0634C158.428 45.6325 158.196 45.1304 158.04 44.5572C157.89 43.9842 157.826 43.3631 157.85 42.694ZM160.306 42.6009L160.299 42.7796C160.286 43.1595 160.311 43.5152 160.373 43.8467C160.435 44.1782 160.538 44.4742 160.683 44.7347C160.833 44.9898 161.021 45.1922 161.249 45.3421C161.482 45.4866 161.761 45.5644 162.084 45.5757C162.532 45.5914 162.901 45.5106 163.191 45.3333C163.481 45.1505 163.703 44.8942 163.857 44.5646C164.01 44.235 164.106 43.8522 164.144 43.4164L164.183 42.3021C164.184 41.9444 164.147 41.6223 164.072 41.3358C163.997 41.0437 163.886 40.7928 163.74 40.5833C163.594 40.3738 163.401 40.2081 163.161 40.0862C162.921 39.9642 162.634 39.8974 162.3 39.8857C161.976 39.8744 161.693 39.9384 161.45 40.0775C161.212 40.2111 161.01 40.3999 160.842 40.6439C160.681 40.888 160.554 41.1789 160.463 41.5163C160.372 41.8481 160.319 42.2097 160.306 42.6009Z" fill="white"/>
<path d="M59.448 16.3863L15.8639 14.8634C15.7159 14.8582 15.5915 14.9756 15.5862 15.1255L14.1127 57.3475C14.1074 57.4975 14.2234 57.6232 14.3714 57.6284L57.9555 59.1513C58.1034 59.1564 58.2271 59.0391 58.2324 58.8891L59.7059 16.6671C59.7112 16.5172 59.5959 16.3914 59.448 16.3863Z" fill="white"/>
<path d="M26.9302 24.6718L26.0946 48.614L26.9302 24.6718Z" fill="#504CFF"/>
<path d="M26.9302 24.6718L26.0946 48.614" stroke="#504CFF" stroke-width="3.83704"/>
<path d="M34.0566 24.9208L33.6404 36.8466L34.0566 24.9208Z" fill="#504CFF"/>
<path d="M34.0566 24.9208L33.6404 36.8466" stroke="#504CFF" stroke-width="3.82976"/>
<path d="M39.481 25.1123L39.3396 29.1631L46.137 29.4006L50.7097 39.8347L55.1496 39.9898L48.5977 25.4309L39.481 25.1123Z" fill="#504CFF"/>
<path d="M41.2104 33.6251L40.6529 49.6013L41.2104 33.6251Z" fill="#504CFF"/>
<path d="M41.2104 33.6251L40.6529 49.6013" stroke="#504CFF" stroke-width="4.43264"/>
</svg>
