<svg width="160" height="42" viewBox="0 0 160 42" fill="none" xmlns="http://www.w3.org/2000/svg">
<g clip-path="url(#clip0_193_9576)">
<path d="M34.9652 27.2182L14.0703 26.4885C13.103 26.4547 12.2649 25.8016 11.9994 24.8703L7.49421 9.13001C7.4353 8.92091 7.2472 8.77632 7.02949 8.76872L3.23191 8.63611C2.99491 8.62783 2.7938 8.4607 2.74107 8.23249L1.86699 4.42285C1.77376 4.01105 2.09362 3.62194 2.51527 3.63667L10.7222 3.92326C11.097 3.93635 11.4248 4.19072 11.5282 4.54767L12.524 8.03306L12.5068 8.04903L12.5289 8.0498L16.2992 21.211C16.363 21.4368 16.5672 21.5958 16.8014 21.604L33.5791 22.1899C33.9429 22.2026 34.2513 22.4562 34.3327 22.8124L35.2647 26.8587C35.3078 27.048 35.1608 27.2278 34.9679 27.221L34.9652 27.2182Z" fill="white"/>
<path d="M12.5286 8.04964L12.5038 8.04877L12.5237 8.0329L12.5286 8.04964Z" fill="white"/>
<path d="M19.0057 36.6169C20.5642 36.6713 21.8718 35.4514 21.9263 33.8921C21.9807 32.3328 20.7614 31.0247 19.2029 30.9703C17.6443 30.9158 16.3367 32.1357 16.2823 33.695C16.2278 35.2543 17.4471 36.5624 19.0057 36.6169Z" fill="white"/>
<path d="M30.2152 37.0083C31.7737 37.0628 33.0813 35.8428 33.1357 34.2836C33.1902 32.7243 31.9709 31.4162 30.4123 31.3617C28.8538 31.3073 27.5462 32.5272 27.4917 34.0865C27.4373 35.6458 28.6566 36.9539 30.2152 37.0083Z" fill="white"/>
<path d="M23.9806 18.5289L20.3815 18.4032C20.161 18.3955 19.9703 18.2453 19.9115 18.0335L17.2531 8.66812C17.1743 8.39484 16.93 8.20136 16.6461 8.19145L12.5041 8.0468L16.3061 4.49707C16.5599 4.26025 16.901 4.13138 17.2483 4.1435L20.1723 4.24561C20.3514 4.25187 20.507 4.37876 20.5478 4.5541L21.4193 8.35813L24.2174 18.228C24.2617 18.3814 24.1433 18.5318 23.9835 18.5262L23.9806 18.5289Z" fill="white"/>
<path d="M32.8928 18.8428L29.2964 18.7172C29.076 18.7095 28.8853 18.5593 28.8265 18.3474L26.1655 8.9765C26.0867 8.70322 25.8424 8.50974 25.5585 8.49983L21.4275 8.35557L25.2294 4.80859C25.4833 4.57177 25.8244 4.4429 26.1716 4.45503L29.0818 4.55665C29.2609 4.56291 29.4165 4.6898 29.4546 4.86504L30.3289 8.66641L33.1241 18.5417C33.1684 18.6951 33.05 18.8455 32.8902 18.8399L32.8928 18.8428Z" fill="white"/>
</g>
<path d="M65.3008 12.3328L64.7116 29.2064L61.9438 29.1098L62.3474 17.5532L56.7968 28.9301L54.8788 28.8631L50.111 17.1259L49.7074 28.6825L46.9396 28.5858L47.5289 11.7122L50.5152 11.8165L55.9771 25.2552L62.3388 12.2294L65.3008 12.3328ZM73.9033 29.6976C72.7703 29.658 71.7574 29.4282 70.8645 29.0081C69.9722 28.5718 69.2799 27.9804 68.7873 27.234C68.2948 26.4875 68.0655 25.6287 68.0995 24.6576L71.0614 24.761C71.1008 25.4916 71.3631 26.1004 71.8485 26.5873C72.35 27.0748 73.0621 27.3346 73.9847 27.3668C74.9396 27.4002 75.6921 27.1996 76.242 26.765C76.7926 26.3143 77.0805 25.7248 77.106 24.9964C77.1258 24.4299 76.9719 23.9627 76.6444 23.5947C76.3332 23.2273 75.93 22.9377 75.4351 22.726C74.9563 22.5148 74.2838 22.2807 73.4177 22.0235C72.3272 21.6938 71.4391 21.371 70.7533 21.0554C70.0842 20.7241 69.5179 20.2344 69.0544 19.5862C68.5909 18.938 68.3775 18.0879 68.4142 17.0358C68.4481 16.0646 68.7206 15.2234 69.2316 14.512C69.7426 13.8006 70.4419 13.2659 71.3295 12.908C72.2171 12.55 73.2355 12.3911 74.3847 12.4312C76.0194 12.4883 77.3404 12.9477 78.3474 13.8093C79.3712 14.6554 79.9149 15.7925 79.9785 17.2208L76.9194 17.114C76.8923 16.4973 76.6193 15.961 76.1005 15.5054C75.5816 15.0497 74.8851 14.8066 74.0111 14.7761C73.218 14.7484 72.5635 14.9281 72.0476 15.3152C71.5317 15.7024 71.2605 16.2763 71.2339 17.037C71.2159 17.555 71.3546 17.9892 71.6503 18.3399C71.9627 18.6749 72.3583 18.948 72.8371 19.1592C73.3159 19.3704 73.9722 19.604 74.8059 19.86C75.912 20.2065 76.8076 20.5457 77.4929 20.8775C78.1943 21.2099 78.7765 21.7083 79.2395 22.3727C79.7192 23.0215 79.9404 23.88 79.9031 24.9482C79.8731 25.8061 79.6102 26.6072 79.1142 27.3515C78.6345 28.0964 77.9413 28.688 77.0347 29.1263C76.1448 29.549 75.101 29.7394 73.9033 29.6976ZM86.6193 18.8383L86.3607 26.2433C86.3432 26.745 86.4438 27.1132 86.6625 27.3477C86.8979 27.5666 87.2989 27.6859 87.8654 27.7057L89.5649 27.7651L89.4843 30.0715L87.2992 29.9952C86.0529 29.9517 85.1082 29.627 84.4649 29.0211C83.8216 28.4153 83.5229 27.4568 83.5687 26.1458L83.8273 18.7408L82.2491 18.6857L82.328 16.4278L83.9061 16.4829L84.0223 13.1567L86.8143 13.2542L86.6981 16.5804L89.9515 16.694L89.8726 18.9519L86.6193 18.8383ZM97.8302 30.5817C96.5678 30.5377 95.4366 30.2146 94.4366 29.6125C93.4373 28.9942 92.6643 28.1569 92.1178 27.1007C91.5719 26.0282 91.3229 24.8041 91.371 23.4283C91.4185 22.0687 91.76 20.8734 92.3956 19.8422C93.0312 18.811 93.8769 18.0303 94.9325 17.5C95.9882 16.9696 97.1554 16.7268 98.4341 16.7715C99.7127 16.8161 100.86 17.1398 101.876 17.7424C102.892 18.3451 103.681 19.1829 104.244 20.2559C104.806 21.3289 105.063 22.5452 105.016 23.9048C104.968 25.2644 104.618 26.4595 103.967 27.4901C103.315 28.5207 102.445 29.3087 101.356 29.8541C100.284 30.3838 99.1089 30.6264 97.8302 30.5817ZM97.9142 28.1782C98.6264 28.203 99.2959 28.0563 99.9228 27.7378C100.566 27.42 101.094 26.9279 101.506 26.2617C101.918 25.5955 102.141 24.7768 102.175 23.8056C102.209 22.8345 102.051 22.0106 101.702 21.334C101.354 20.6412 100.878 20.1141 100.275 19.7527C99.6714 19.3913 99.0137 19.1982 98.3016 19.1733C97.5894 19.1485 96.9198 19.2952 96.2929 19.6137C95.6822 19.9327 95.1869 20.4258 94.8071 21.0932C94.4278 21.7444 94.2212 22.5555 94.1873 23.5267C94.137 24.9672 94.4622 26.0968 95.1628 26.9153C95.8802 27.7182 96.7974 28.1392 97.9142 28.1782ZM110.685 19.3627C111.113 18.697 111.666 18.1896 112.342 17.8405C113.036 17.4758 113.844 17.3096 114.766 17.3418L114.666 20.2067L113.962 20.1821C112.878 20.1442 112.043 20.3905 111.457 20.9211C110.887 21.4522 110.579 22.3975 110.531 23.7571L110.285 30.7979L107.518 30.7013L107.985 17.3237L110.753 17.4204L110.685 19.3627ZM129.341 24.4383C129.324 24.94 129.276 25.3921 129.197 25.7945L118.975 25.4376C119.019 26.5086 119.386 27.3803 120.075 28.0526C120.765 28.7249 121.627 29.0792 122.663 29.1153C124.152 29.1673 125.226 28.5809 125.885 27.3561L128.871 27.4604C128.423 28.6764 127.652 29.6623 126.556 30.4181C125.477 31.1582 124.152 31.5009 122.582 31.4461C121.303 31.4014 120.164 31.0781 119.164 30.476C118.181 29.8582 117.416 29.0212 116.87 27.965C116.34 26.8931 116.099 25.6693 116.147 24.2935C116.195 22.9177 116.512 21.7215 117.099 20.7048C117.702 19.6726 118.515 18.8907 119.539 18.3592C120.578 17.8283 121.753 17.5858 123.064 17.6316C124.327 17.6756 125.442 17.9901 126.41 18.5749C127.378 19.1597 128.12 19.9634 128.635 20.9862C129.151 21.9927 129.386 23.1434 129.341 24.4383ZM126.483 23.4634C126.502 22.4431 126.166 21.613 125.476 20.9731C124.785 20.3331 123.914 19.9948 122.862 19.9581C121.907 19.9247 121.078 20.2037 120.377 20.795C119.676 21.3702 119.243 22.1734 119.078 23.2048L126.483 23.4634ZM132.931 31.7589C132.429 31.7413 132.014 31.5567 131.686 31.2049C131.358 30.8532 131.203 30.4264 131.22 29.9246C131.238 29.4229 131.423 29.008 131.774 28.68C132.126 28.3519 132.553 28.1967 133.055 28.2142C133.54 28.2311 133.947 28.4155 134.275 28.7673C134.603 29.1191 134.758 29.5458 134.741 30.0476C134.723 30.5493 134.539 30.9642 134.187 31.2923C133.835 31.6203 133.416 31.7758 132.931 31.7589ZM139.613 16.6537C139.112 16.6362 138.697 16.4516 138.369 16.0998C138.041 15.748 137.885 15.3213 137.903 14.8195C137.921 14.3178 138.105 13.9029 138.457 13.5748C138.809 13.2468 139.235 13.0915 139.737 13.1091C140.223 13.126 140.63 13.3104 140.958 13.6622C141.286 14.0139 141.441 14.4407 141.423 14.9424C141.406 15.4442 141.221 15.8591 140.869 16.1871C140.518 16.5152 140.099 16.6707 139.613 16.6537ZM140.911 18.4736L140.444 31.8511L137.676 31.7544L138.143 18.3769L140.911 18.4736ZM143.391 25.1963C143.438 23.8529 143.755 22.6728 144.341 21.6562C144.944 20.6401 145.732 19.8654 146.707 19.3323C147.699 18.7835 148.785 18.5298 149.967 18.571C150.841 18.6015 151.692 18.8257 152.52 19.2436C153.365 19.6458 154.027 20.1713 154.507 20.8201L154.732 14.3619L157.524 14.4594L156.897 32.4256L154.105 32.3281L154.175 30.313C153.699 30.9446 153.05 31.4567 152.226 31.8493C151.418 32.2424 150.496 32.4209 149.46 32.3847C148.295 32.344 147.237 32.0154 146.286 31.3988C145.352 30.7665 144.62 29.9145 144.09 28.8426C143.577 27.7552 143.344 26.5397 143.391 25.1963ZM154.339 25.6272C154.371 24.7046 154.205 23.8967 153.84 23.2033C153.492 22.5105 153.016 21.9753 152.413 21.5977C151.811 21.2202 151.153 21.019 150.441 20.9941C149.729 20.9692 149.059 21.1241 148.432 21.4587C147.805 21.7771 147.285 22.2695 146.873 22.9357C146.478 23.5863 146.264 24.3729 146.232 25.2955C146.199 26.2181 146.357 27.0339 146.705 27.7429C147.069 28.4524 147.552 29.0041 148.154 29.3978C148.773 29.7759 149.431 29.9772 150.127 30.0015C150.839 30.0263 151.509 29.8715 152.136 29.5369C152.764 29.2022 153.275 28.7015 153.671 28.0347C154.084 27.3523 154.307 26.5498 154.339 25.6272Z" fill="white"/>
<defs>
<clipPath id="clip0_193_9576">
<rect width="34.1907" height="32.3912" fill="white" transform="translate(1.87402 3.60657) rotate(2)"/>
</clipPath>
</defs>
</svg>
