<svg width="27" height="29" viewBox="0 0 27 29" fill="none" xmlns="http://www.w3.org/2000/svg">
<path fill-rule="evenodd" clip-rule="evenodd" d="M19.263 28H7.7243C3.48584 28 0.234242 26.4443 1.15785 20.1828L2.23328 11.6971C2.80262 8.57279 4.7637 7.37708 6.48439 7.37708H20.5536C22.2996 7.37708 24.1468 8.66279 24.8047 11.6971L25.8801 20.1828C26.6645 25.7371 23.5015 28 19.263 28Z" stroke="white" stroke-width="1.5" stroke-linecap="round" stroke-linejoin="round"/>
<path d="M19.4538 7.06864C19.4538 3.71705 16.7801 1.00005 13.482 1.00005V1.00005C11.8938 0.993216 10.3683 1.62956 9.2429 2.76839C8.11749 3.90721 7.48485 5.45469 7.48486 7.06864H7.48486" stroke="white" stroke-width="1.5" stroke-linecap="round" stroke-linejoin="round"/>
<path d="M17.5807 13.3941H17.5175" stroke="white" stroke-width="2.14913" stroke-linecap="round" stroke-linejoin="round"/>
<path d="M9.52166 13.3941H9.4584" stroke="white" stroke-width="2.14913" stroke-linecap="round" stroke-linejoin="round"/>
</svg>
