<svg width="36" height="36" viewBox="0 0 36 36" fill="none" xmlns="http://www.w3.org/2000/svg">
<path d="M32.94 20.16H32.04C31.8708 14.6196 28.7028 9.98642 23.9796 7.92002H29.88V8.82002C29.88 8.96324 29.9369 9.10059 30.0382 9.20186C30.1395 9.30313 30.2768 9.36002 30.42 9.36002C30.5632 9.36002 30.7006 9.30313 30.8019 9.20186C30.9031 9.10059 30.96 8.96324 30.96 8.82002V5.94002C30.96 5.79681 30.9031 5.65946 30.8019 5.55819C30.7006 5.45692 30.5632 5.40002 30.42 5.40002C30.2768 5.40002 30.1395 5.45692 30.0382 5.55819C29.9369 5.65946 29.88 5.79681 29.88 5.94002V6.84002H20.16V5.94002C20.16 5.79681 20.1031 5.65946 20.0019 5.55819C19.9006 5.45692 19.7632 5.40002 19.62 5.40002H16.74C16.5968 5.40002 16.4595 5.45692 16.3582 5.55819C16.2569 5.65946 16.2 5.79681 16.2 5.94002V6.84002H6.48002V5.94002C6.48002 5.79681 6.42313 5.65946 6.32186 5.55819C6.22059 5.45692 6.08324 5.40002 5.94002 5.40002C5.7968 5.40002 5.65945 5.45692 5.55818 5.55819C5.45691 5.65946 5.40002 5.79681 5.40002 5.94002V8.82002C5.40002 8.96324 5.45691 9.10059 5.55818 9.20186C5.65945 9.30313 5.7968 9.36002 5.94002 9.36002C6.08324 9.36002 6.22059 9.30313 6.32186 9.20186C6.42313 9.10059 6.48002 8.96324 6.48002 8.82002V7.92002H12.3624C9.88781 8.97494 7.77476 10.729 6.28227 12.967C4.78979 15.2051 3.98273 17.83 3.96002 20.52H3.06002C2.9168 20.52 2.77945 20.5769 2.67818 20.6782C2.57691 20.7795 2.52002 20.9168 2.52002 21.06V23.94C2.52002 24.0832 2.57691 24.2206 2.67818 24.3219C2.77945 24.4231 2.9168 24.48 3.06002 24.48H5.94002C6.08324 24.48 6.22059 24.4231 6.32186 24.3219C6.42313 24.2206 6.48002 24.0832 6.48002 23.94V21.06C6.48002 20.9168 6.42313 20.7795 6.32186 20.6782C6.22059 20.5769 6.08324 20.52 5.94002 20.52H5.04002C5.07606 17.4346 6.22499 14.466 8.27544 12.1603C10.3259 9.85449 13.14 8.36665 16.2 7.97042V8.82002C16.2 8.96324 16.2569 9.10059 16.3582 9.20186C16.4595 9.30313 16.5968 9.36002 16.74 9.36002H17.6688L12.0636 23.5836C12.0163 23.7077 12.0163 23.8448 12.0636 23.9688L14.0724 29.4372L14.04 32.9364C14.0395 33.0076 14.0532 33.0782 14.0801 33.1442C14.107 33.2101 14.1467 33.2701 14.1969 33.3206C14.2471 33.3711 14.3068 33.4112 14.3725 33.4386C14.4383 33.4659 14.5088 33.48 14.58 33.48H21.42C21.5632 33.48 21.7006 33.4231 21.8019 33.3219C21.9031 33.2206 21.96 33.0832 21.96 32.94V29.4552L24.4116 24.0012C24.4398 23.9346 24.4544 23.863 24.4544 23.7906C24.4544 23.7183 24.4398 23.6467 24.4116 23.58L18.6912 9.36002H19.62C19.7632 9.36002 19.9006 9.30313 20.0019 9.20186C20.1031 9.10059 20.16 8.96324 20.16 8.82002V7.97042C26.28 8.80922 30.7404 13.8384 30.96 20.16H30.06C29.9168 20.16 29.7795 20.2169 29.6782 20.3182C29.5769 20.4195 29.52 20.5568 29.52 20.7V23.58C29.52 23.7232 29.5769 23.8606 29.6782 23.9619C29.7795 24.0631 29.9168 24.12 30.06 24.12H32.94C33.0832 24.12 33.2206 24.0631 33.3219 23.9619C33.4231 23.8606 33.48 23.7232 33.48 23.58V20.7C33.48 20.5568 33.4231 20.4195 33.3219 20.3182C33.2206 20.2169 33.0832 20.16 32.94 20.16ZM5.40002 23.4H3.60002V21.6H5.40002V23.4ZM15.12 32.4L15.1416 29.88H20.88V32.4H15.12ZM21.0708 28.8H14.9868L13.1436 23.7888L17.64 12.3804V22.14C17.64 22.2832 17.6969 22.4206 17.7982 22.5219C17.8995 22.6231 18.0368 22.68 18.18 22.68C18.3232 22.68 18.4606 22.6231 18.5619 22.5219C18.6631 22.4206 18.72 22.2832 18.72 22.14V12.3264L23.3316 23.76L21.0708 28.8ZM19.08 8.28002H17.28V6.48002H19.08V8.28002ZM32.4 23.04H30.6V21.24H32.4V23.04Z" fill="white"/>
</svg>
