<svg width="81" height="35" viewBox="0 0 81 35" fill="none" xmlns="http://www.w3.org/2000/svg">
<rect y="9" width="3" height="17" rx="1.5" fill="#504DFF"/>
<rect x="4" y="6" width="3" height="23" rx="1.5" fill="#504DFF"/>
<rect x="8" y="4" width="3" height="27" rx="1.5" fill="#504DFF"/>
<rect x="12" width="3" height="35" rx="1.5" fill="#504DFF"/>
<rect x="16" width="3" height="35" rx="1.5" fill="#504DFF"/>
<rect x="20" y="4" width="3" height="27" rx="1.5" fill="#504DFF"/>
<rect x="24" y="6" width="3" height="23" rx="1.5" fill="#504DFF"/>
<rect x="28" y="9" width="3" height="17" rx="1.5" fill="#504DFF"/>
<path d="M38.296 23.5V11.804H42.952C45.256 11.804 46.664 13.004 46.664 14.956C46.664 16.252 46.088 17.18 44.984 17.644C46.216 18.044 46.84 18.972 46.84 20.332C46.84 22.332 45.448 23.5 43.032 23.5H38.296ZM42.776 13.612H40.344V16.796H42.824C43.944 16.796 44.568 16.204 44.568 15.164C44.568 14.156 43.928 13.612 42.776 13.612ZM42.952 18.524H40.344V21.692H42.952C44.104 21.692 44.744 21.132 44.744 20.076C44.744 19.084 44.088 18.524 42.952 18.524ZM50.7819 23.708C49.1019 23.708 48.0779 22.732 48.0779 21.244C48.0779 19.788 49.1339 18.876 51.0059 18.732L53.3739 18.556V18.38C53.3739 17.308 52.7339 16.876 51.7419 16.876C50.5899 16.876 49.9499 17.356 49.9499 18.188H48.2859C48.2859 16.476 49.6939 15.356 51.8379 15.356C53.9659 15.356 55.2779 16.508 55.2779 18.7V23.5H53.5659L53.4219 22.332C53.0859 23.148 52.0139 23.708 50.7819 23.708ZM51.4219 22.236C52.6219 22.236 53.3899 21.516 53.3899 20.3V19.884L51.7419 20.012C50.5259 20.124 50.0619 20.524 50.0619 21.164C50.0619 21.884 50.5419 22.236 51.4219 22.236ZM59.1475 23.5H57.1955V15.596H59.0035L59.1635 16.62C59.6595 15.82 60.6195 15.356 61.6915 15.356C63.6755 15.356 64.6995 16.588 64.6995 18.636V23.5H62.7475V19.1C62.7475 17.772 62.0915 17.132 61.0835 17.132C59.8835 17.132 59.1475 17.964 59.1475 19.244V23.5ZM69.3054 23.5H67.3534V17.228H65.8334V15.596H67.3534V13.132H69.3054V15.596H70.8414V17.228H69.3054V23.5ZM77.4149 15.596H79.3669V23.5H77.5589L77.4149 22.444C76.9349 23.196 75.9109 23.708 74.8549 23.708C73.0309 23.708 71.9589 22.476 71.9589 20.54V15.596H73.9109V19.852C73.9109 21.356 74.5029 21.964 75.5909 21.964C76.8229 21.964 77.4149 21.244 77.4149 19.74V15.596Z" fill="white"/>
</svg>
