<svg width="329" height="333" viewBox="0 0 329 333" fill="none" xmlns="http://www.w3.org/2000/svg">
<g filter="url(#filter0_b_427_112)">
<path d="M267.021 409.979L121.965 357.543C104.741 351.317 95.7612 332.366 101.85 315.093L182.962 85.0047C186.798 74.123 195.987 65.9973 207.256 63.5206L297.308 43.7295C309.832 40.9771 322.825 45.649 330.728 55.7466L386.205 126.627C393.225 135.596 395.182 147.527 391.396 158.269L309.81 389.703C303.653 407.172 284.44 416.275 267.021 409.979Z" fill="url(#paint0_linear_427_112)" fill-opacity="0.4"/>
<path d="M267.021 409.979L121.965 357.543C104.741 351.317 95.7612 332.366 101.85 315.093L182.962 85.0047C186.798 74.123 195.987 65.9973 207.256 63.5206L297.308 43.7295C309.832 40.9771 322.825 45.649 330.728 55.7466L386.205 126.627C393.225 135.596 395.182 147.527 391.396 158.269L309.81 389.703C303.653 407.172 284.44 416.275 267.021 409.979Z" stroke="url(#paint1_linear_427_112)" stroke-width="1.5"/>
</g>
<g filter="url(#filter1_b_427_112)">
<circle cx="300.502" cy="107" r="16" fill="white" fill-opacity="0.4"/>
</g>
<g filter="url(#filter2_b_427_112)">
<circle cx="8" cy="8" r="8" transform="matrix(-1 0 0 1 309.502 98)" fill="#161617"/>
</g>
<g filter="url(#filter3_b_427_112)">
<path d="M235.502 56.5C235.502 45.9381 238.543 38.0995 244.262 29.2198C249.981 20.3401 258.135 13.2948 267.751 8.92595C277.367 4.55705 288.038 3.04931 298.488 4.58291C308.938 6.11651 318.725 10.6266 326.681 17.5742C334.636 24.5217 340.422 33.613 343.349 43.7614C346.275 53.9098 346.217 64.6862 343.183 74.8028C340.148 84.9194 334.265 93.9482 326.236 100.81C320.065 106.084 311.409 110.497 302.981 112.903C298.886 114.072 294.961 111.147 294.283 106.943C293.581 102.588 296.622 98.5389 300.87 97.3501C306.713 95.7144 312.71 93.1179 316.727 89.6846C322.619 84.6485 326.937 78.0223 329.164 70.5977C331.392 63.1732 331.434 55.2643 329.286 47.8164C327.139 40.3684 322.892 33.6964 317.053 28.5976C311.215 23.4987 304.032 20.1888 296.363 19.0633C288.694 17.9378 280.863 19.0443 273.805 22.2506C266.748 25.457 260.763 30.6275 256.566 37.1443C252.369 43.6611 250.002 47 250.002 53.5L235.502 56.5Z" fill="white" fill-opacity="0.25"/>
</g>
<defs>
<filter id="filter0_b_427_112" x="74.1943" y="17.2009" width="344.849" height="420.524" filterUnits="userSpaceOnUse" color-interpolation-filters="sRGB">
<feFlood flood-opacity="0" result="BackgroundImageFix"/>
<feGaussianBlur in="BackgroundImageFix" stdDeviation="12.5"/>
<feComposite in2="SourceAlpha" operator="in" result="effect1_backgroundBlur_427_112"/>
<feBlend mode="normal" in="SourceGraphic" in2="effect1_backgroundBlur_427_112" result="shape"/>
</filter>
<filter id="filter1_b_427_112" x="259.502" y="66" width="82" height="82" filterUnits="userSpaceOnUse" color-interpolation-filters="sRGB">
<feFlood flood-opacity="0" result="BackgroundImageFix"/>
<feGaussianBlur in="BackgroundImageFix" stdDeviation="12.5"/>
<feComposite in2="SourceAlpha" operator="in" result="effect1_backgroundBlur_427_112"/>
<feBlend mode="normal" in="SourceGraphic" in2="effect1_backgroundBlur_427_112" result="shape"/>
</filter>
<filter id="filter2_b_427_112" x="268.502" y="73" width="66" height="66" filterUnits="userSpaceOnUse" color-interpolation-filters="sRGB">
<feFlood flood-opacity="0" result="BackgroundImageFix"/>
<feGaussianBlur in="BackgroundImageFix" stdDeviation="12.5"/>
<feComposite in2="SourceAlpha" operator="in" result="effect1_backgroundBlur_427_112"/>
<feBlend mode="normal" in="SourceGraphic" in2="effect1_backgroundBlur_427_112" result="shape"/>
</filter>
<filter id="filter3_b_427_112" x="210.502" y="-21" width="160" height="159.163" filterUnits="userSpaceOnUse" color-interpolation-filters="sRGB">
<feFlood flood-opacity="0" result="BackgroundImageFix"/>
<feGaussianBlur in="BackgroundImageFix" stdDeviation="12.5"/>
<feComposite in2="SourceAlpha" operator="in" result="effect1_backgroundBlur_427_112"/>
<feBlend mode="normal" in="SourceGraphic" in2="effect1_backgroundBlur_427_112" result="shape"/>
</filter>
<linearGradient id="paint0_linear_427_112" x1="196.502" y1="74" x2="290.502" y2="297" gradientUnits="userSpaceOnUse">
<stop stop-color="white"/>
<stop offset="1" stop-color="white" stop-opacity="0"/>
</linearGradient>
<linearGradient id="paint1_linear_427_112" x1="192.002" y1="65.5" x2="285.002" y2="179.5" gradientUnits="userSpaceOnUse">
<stop stop-color="white"/>
<stop offset="1" stop-color="white" stop-opacity="0"/>
</linearGradient>
</defs>
</svg>
