<svg width="333" height="331" viewBox="0 0 333 331" fill="none" xmlns="http://www.w3.org/2000/svg">
<g clip-path="url(#clip0_172_71)">
<g filter="url(#filter0_b_172_71)">
<path d="M335.928 78.8053C335.631 77.0188 334.173 75.649 332.368 75.4786C330.947 75.245 299.732 73.1051 299.732 73.1051L275.934 49.3069C273.788 46.9334 269.041 47.6278 267.248 48.1202C267.014 48.1202 262.501 49.5405 255.115 51.9392C247.938 31.1711 235.231 12.1326 212.847 12.1326H210.934C204.521 3.81906 196.668 0 190.04 0C137.924 0.233562 113.09 65.2271 105.238 98.4371L68.8146 109.61C57.6415 113.171 57.2312 113.429 55.7288 124.085L25.0059 360.917L255.21 404L379.964 377.109C379.964 376.875 336.155 81.0651 335.928 78.8053ZM242.352 55.9287C236.563 57.8414 229.96 59.7478 222.846 61.8941V57.6016C223.057 46.8903 221.452 36.2206 218.099 26.0454C229.764 27.8381 237.605 40.9239 242.358 55.9224L242.352 55.9287ZM204.047 28.7976C207.854 40.0212 209.621 51.8382 209.261 63.6868V65.8331L169.019 78.2245C176.897 48.8083 191.422 34.2769 204.047 28.7976ZM188.582 14.3231C190.962 14.3737 193.277 15.1174 195.241 16.463C178.45 24.2779 160.699 44.0234 153.086 83.5459L121.24 93.3051C130.223 63.3144 151.18 14.2662 188.563 14.2662L188.582 14.3231Z" fill="url(#paint0_linear_172_71)" fill-opacity="0.4"/>
<path d="M335.928 78.8053C335.631 77.0188 334.173 75.649 332.368 75.4786C330.947 75.245 299.732 73.1051 299.732 73.1051L275.934 49.3069C273.788 46.9334 269.041 47.6278 267.248 48.1202C267.014 48.1202 262.501 49.5405 255.115 51.9392C247.938 31.1711 235.231 12.1326 212.847 12.1326H210.934C204.521 3.81906 196.668 0 190.04 0C137.924 0.233562 113.09 65.2271 105.238 98.4371L68.8146 109.61C57.6415 113.171 57.2312 113.429 55.7288 124.085L25.0059 360.917L255.21 404L379.964 377.109C379.964 376.875 336.155 81.0651 335.928 78.8053ZM242.352 55.9287C236.563 57.8414 229.96 59.7478 222.846 61.8941V57.6016C223.057 46.8903 221.452 36.2206 218.099 26.0454C229.764 27.8381 237.605 40.9239 242.358 55.9224L242.352 55.9287ZM204.047 28.7976C207.854 40.0212 209.621 51.8382 209.261 63.6868V65.8331L169.019 78.2245C176.897 48.8083 191.422 34.2769 204.047 28.7976ZM188.582 14.3231C190.962 14.3737 193.277 15.1174 195.241 16.463C178.45 24.2779 160.699 44.0234 153.086 83.5459L121.24 93.3051C130.223 63.3144 151.18 14.2662 188.563 14.2662L188.582 14.3231Z" stroke="url(#paint1_linear_172_71)" stroke-width="1.5"/>
</g>
<g filter="url(#filter1_b_172_71)">
<path d="M332.369 75.479C330.949 75.2455 299.734 73.1055 299.734 73.1055L275.935 49.3074C275.052 48.411 273.852 47.8997 272.609 47.8871L255.237 404L379.991 377.109L335.93 79.0456C335.787 78.1528 335.366 77.328 334.726 76.6886C334.087 76.0493 333.262 75.6282 332.369 75.4853V75.479Z" fill="url(#paint2_linear_172_71)" fill-opacity="0.25"/>
</g>
<g filter="url(#filter2_b_172_71)">
<path d="M212.853 144.493L197.362 190.208C188.001 185.676 177.768 183.239 167.365 183.056C143.075 183.056 141.888 198.282 141.888 202.107C141.888 222.926 196.403 230.917 196.403 279.959C196.403 318.528 171.879 343.273 138.959 343.273C99.4429 343.273 79.1987 318.749 79.1987 318.749L89.709 283.715C89.709 283.715 110.414 301.579 128.045 301.579C130.152 301.66 132.254 301.312 134.224 300.556C136.193 299.801 137.988 298.654 139.501 297.184C141.014 295.715 142.214 293.954 143.026 292.007C143.839 290.061 144.249 287.97 144.23 285.861C144.23 258.465 99.4745 257.285 99.4745 212.523C99.4745 174.887 126.606 138.224 181.12 138.224C202.545 138.54 212.797 144.474 212.797 144.474L212.853 144.493Z" fill="white" fill-opacity="0.4"/>
<path d="M212.853 144.493L197.362 190.208C188.001 185.676 177.768 183.239 167.365 183.056C143.075 183.056 141.888 198.282 141.888 202.107C141.888 222.926 196.403 230.917 196.403 279.959C196.403 318.528 171.879 343.273 138.959 343.273C99.4429 343.273 79.1987 318.749 79.1987 318.749L89.709 283.715C89.709 283.715 110.414 301.579 128.045 301.579C130.152 301.66 132.254 301.312 134.224 300.556C136.193 299.801 137.988 298.654 139.501 297.184C141.014 295.715 142.214 293.954 143.026 292.007C143.839 290.061 144.249 287.97 144.23 285.861C144.23 258.465 99.4745 257.285 99.4745 212.523C99.4745 174.887 126.606 138.224 181.12 138.224C202.545 138.54 212.797 144.474 212.797 144.474L212.853 144.493Z" stroke="url(#paint3_linear_172_71)" stroke-width="0.882096"/>
</g>
</g>
<defs>
<filter id="filter0_b_172_71" x="2.1185" y="-22.8024" width="400.648" height="449.62" filterUnits="userSpaceOnUse" color-interpolation-filters="sRGB">
<feFlood flood-opacity="0" result="BackgroundImageFix"/>
<feGaussianBlur in="BackgroundImageFix" stdDeviation="11.0262"/>
<feComposite in2="SourceAlpha" operator="in" result="effect1_backgroundBlur_172_71"/>
<feBlend mode="normal" in="SourceGraphic" in2="effect1_backgroundBlur_172_71" result="shape"/>
</filter>
<filter id="filter1_b_172_71" x="230.237" y="22.8871" width="174.754" height="406.113" filterUnits="userSpaceOnUse" color-interpolation-filters="sRGB">
<feFlood flood-opacity="0" result="BackgroundImageFix"/>
<feGaussianBlur in="BackgroundImageFix" stdDeviation="12.5"/>
<feComposite in2="SourceAlpha" operator="in" result="effect1_backgroundBlur_172_71"/>
<feBlend mode="normal" in="SourceGraphic" in2="effect1_backgroundBlur_172_71" result="shape"/>
</filter>
<filter id="filter2_b_172_71" x="56.6561" y="115.731" width="178.809" height="250.036" filterUnits="userSpaceOnUse" color-interpolation-filters="sRGB">
<feFlood flood-opacity="0" result="BackgroundImageFix"/>
<feGaussianBlur in="BackgroundImageFix" stdDeviation="11.0262"/>
<feComposite in2="SourceAlpha" operator="in" result="effect1_backgroundBlur_172_71"/>
<feBlend mode="normal" in="SourceGraphic" in2="effect1_backgroundBlur_172_71" result="shape"/>
</filter>
<linearGradient id="paint0_linear_172_71" x1="59.6023" y1="109.38" x2="305.266" y2="292.415" gradientUnits="userSpaceOnUse">
<stop stop-color="white"/>
<stop offset="1" stop-color="white" stop-opacity="0"/>
</linearGradient>
<linearGradient id="paint1_linear_172_71" x1="56.0739" y1="115.114" x2="131.493" y2="166.716" gradientUnits="userSpaceOnUse">
<stop stop-color="white"/>
<stop offset="0.996715" stop-color="white" stop-opacity="0"/>
</linearGradient>
<linearGradient id="paint2_linear_172_71" x1="278.002" y1="79.5001" x2="285.502" y2="306" gradientUnits="userSpaceOnUse">
<stop stop-color="white"/>
<stop offset="1" stop-color="white" stop-opacity="0"/>
</linearGradient>
<linearGradient id="paint3_linear_172_71" x1="111.646" y1="151.279" x2="213.087" y2="288.004" gradientUnits="userSpaceOnUse">
<stop stop-color="white"/>
<stop offset="1" stop-color="white" stop-opacity="0"/>
</linearGradient>
<clipPath id="clip0_172_71">
<rect width="404" height="404" fill="white" transform="translate(0.501953)"/>
</clipPath>
</defs>
</svg>
